<?xml version="1.0" standalone="no"?>
<!DOCTYPE svg PUBLIC "-//W3C//DTD SVG 20010904//EN"
 "http://www.w3.org/TR/2001/REC-SVG-20010904/DTD/svg10.dtd">
<svg version="1.0" xmlns="http://www.w3.org/2000/svg"
 width="512.000000pt" height="512.000000pt" viewBox="0 0 512.000000 512.000000"
 preserveAspectRatio="xMidYMid meet">
<metadata>
Created by potrace 1.16, written by Peter Selinger 2001-2019
</metadata>
<g transform="translate(0.000000,512.000000) scale(0.100000,-0.100000)"
fill="#000000" stroke="none">
<path d="M360 5101 c-91 -29 -142 -61 -211 -130 -70 -70 -106 -130 -133 -220
-14 -50 -16 -255 -16 -2191 0 -2343 -4 -2173 58 -2295 32 -64 143 -175 207
-207 122 -62 -48 -58 2295 -58 2343 0 2173 -4 2295 58 64 32 175 143 207 207
62 122 58 -48 58 2295 0 2343 4 2173 -58 2295 -32 64 -143 175 -207 207 -122
62 49 58 -2299 57 -2024 0 -2144 -1 -2196 -18z m2837 -1893 c29 -32 53 -83 53
-111 0 -38 -25 -100 -64 -159 -42 -63 -69 -170 -87 -348 -24 -227 0 -240 157
-87 73 70 88 69 82 -8 -3 -40 -13 -65 -39 -101 -69 -97 -223 -172 -287 -141
-15 7 -36 30 -47 52 -11 22 -21 42 -22 44 -2 2 -12 -8 -24 -22 -58 -74 -199
-109 -294 -73 -54 21 -100 72 -116 128 -15 53 -1 167 31 251 29 76 118 172
197 212 52 27 67 30 149 29 l92 -1 21 86 c26 101 86 237 115 257 29 20 60 17
83 -8z m1202 9 c58 -30 84 -112 61 -196 -24 -92 -142 -176 -279 -200 -36 -6
-69 -15 -73 -19 -8 -8 -58 -176 -58 -195 0 -5 12 -6 28 -3 15 2 43 7 63 10
l36 6 16 -59 c20 -72 55 -106 102 -97 35 7 115 88 115 116 0 11 12 51 26 90
26 72 26 72 6 93 -47 52 -51 106 -12 142 25 23 90 24 123 2 14 -9 36 -39 49
-67 22 -49 24 -50 66 -50 24 0 65 9 92 21 62 27 79 23 107 -26 30 -53 29 -68
-12 -214 -19 -69 -35 -135 -35 -148 0 -42 37 -26 119 52 43 41 83 75 90 75 18
0 13 -91 -9 -137 -31 -70 -108 -139 -175 -159 -77 -22 -124 -9 -157 44 -20 32
-23 49 -22 137 0 82 5 112 26 168 26 69 26 69 5 63 -12 -3 -38 -6 -58 -6 l-37
0 -17 -75 c-10 -48 -16 -113 -15 -178 1 -56 1 -110 1 -120 -1 -25 -59 -57
-103 -57 -46 0 -63 23 -73 96 l-6 51 -37 -18 c-61 -31 -164 -20 -226 24 l-29
21 6 -55 c22 -188 28 -298 18 -336 -23 -86 -78 -123 -183 -123 -77 0 -107 14
-131 60 -46 87 17 544 111 807 l29 82 -49 30 c-33 21 -48 37 -48 52 0 23 -1
23 105 3 29 -5 32 -2 65 62 44 87 140 190 205 220 56 26 135 31 174 11z
m-3571 -372 c39 -43 40 -64 2 -135 -28 -52 -30 -61 -30 -170 0 -63 4 -121 9
-129 16 -25 54 -4 129 72 l74 74 -11 58 c-14 75 -13 161 2 205 20 59 114 90
165 54 18 -12 22 -25 22 -70 0 -30 -7 -87 -16 -127 -17 -75 -14 -199 6 -237
21 -39 66 -34 116 12 l22 19 -20 62 c-25 79 -27 190 -5 234 35 66 118 98 197
74 111 -33 118 -145 20 -297 -22 -33 -40 -64 -40 -68 0 -11 63 -66 75 -66 16
0 58 47 93 103 30 47 30 51 25 141 -7 109 5 154 48 191 25 20 41 25 89 25 52
0 61 -3 80 -27 34 -44 24 -120 -29 -228 l-43 -87 23 -24 c15 -16 34 -24 55
-24 34 0 38 3 75 53 14 18 30 27 48 27 25 0 31 -7 50 -52 35 -85 47 -102 92
-125 40 -22 109 -31 109 -15 0 14 -33 57 -91 117 -91 95 -109 128 -109 197 0
65 14 100 57 139 60 56 145 78 229 59 87 -20 127 -84 105 -168 -11 -38 -56
-89 -98 -111 -23 -12 -23 -12 22 -66 49 -61 62 -103 46 -161 -22 -83 -97 -125
-231 -132 -129 -6 -172 7 -233 70 -35 35 -54 48 -68 45 -29 -8 -85 11 -118 38
-16 14 -31 25 -34 25 -3 0 -32 -28 -64 -61 -68 -73 -136 -119 -174 -119 -27 0
-92 60 -118 109 -12 21 -13 21 -69 -23 -76 -59 -136 -88 -175 -84 -38 4 -70
53 -88 135 l-12 53 -57 -63 c-61 -67 -134 -110 -206 -121 -35 -6 -45 -4 -72
19 -17 14 -33 39 -37 55 -4 17 -9 30 -12 30 -3 0 -27 -20 -53 -44 -57 -53
-108 -69 -201 -64 -75 4 -120 28 -158 84 -45 65 -37 219 16 332 33 71 118 156
186 187 63 29 157 41 208 28 29 -9 39 -7 57 8 30 24 77 10 120 -36z m2796
-411 c56 -55 -33 -224 -117 -224 -64 0 -125 58 -113 106 9 33 74 104 111 120
41 18 100 17 119 -2z"/>
<path d="M2930 2780 c-76 -21 -166 -94 -202 -165 -14 -26 -23 -65 -26 -115 -3
-66 -1 -78 17 -97 44 -46 135 -19 182 54 21 35 29 61 34 121 3 42 10 106 16
141 5 35 9 64 7 66 -2 1 -14 -1 -28 -5z"/>
<path d="M4252 3066 c-33 -30 -102 -138 -102 -160 0 -3 26 7 58 23 89 45 130
95 120 148 -6 30 -35 26 -76 -11z"/>
<path d="M3977 2234 c-34 -191 -33 -244 3 -244 36 0 43 35 36 173 -8 167 -19
187 -39 71z"/>
<path d="M613 2771 c-106 -41 -182 -126 -203 -228 -27 -127 35 -198 128 -149
69 36 97 94 106 216 4 52 11 112 15 133 5 20 6 39 2 41 -3 2 -25 -4 -48 -13z"/>
</g>
</svg>
